<?xml version="1.0" encoding="utf-8"?>
<!DOCTYPE svg PUBLIC "-//W3C//DTD SVG 1.0//EN" "http://www.w3.org/TR/2001/REC-SVG-20010904/DTD/svg10.dtd">
<svg version="1.0" xmlns="http://www.w3.org/2000/svg" width="180px" height="184px" viewBox="16 37 180 184" preserveAspectRatio="xMidYMid meet">
 <g fill="#45944b">
  <path d="M128.93 113.65 c-7.76 -2.47 -10.19 -12.24 -4.50 -18 4.16 -4.21 10.78 -4.23 14.92 -0.09 5.85 5.85 3.51 15.66 -4.30 18.07 -1.82 0.56 -4.41 0.58 -6.12 0.02z"/>
 </g>
 <g fill="#337e41">
  <path d="M70 168.62 c-1.91 -0.97 -2.95 -3.13 -2.50 -5.18 0.18 -0.83 2.99 -7.56 14.96 -35.98 1.82 -4.32 5.09 -12.06 7.22 -17.17 2.14 -5.11 4.14 -9.63 4.45 -10.06 1.62 -2.12 5.06 -2.20 6.91 -0.20 0.34 0.36 3.76 7.09 7.63 14.94 3.85 7.85 7.16 14.44 7.34 14.63 0.27 0.27 1.17 -0.54 7 -6.46 6.16 -6.21 6.80 -6.80 7.76 -7.04 2.09 -0.54 4.23 0.45 5.24 2.45 0.29 0.61 2.09 5.06 4.01 9.94 1.91 4.88 5.76 14.69 8.55 21.83 5.51 14.04 5.56 14.15 4.68 16.07 -0.83 1.85 -2.92 3.02 -4.86 2.70 -1.35 -0.20 -2.72 -1.13 -3.35 -2.20 -0.31 -0.52 -1.58 -3.58 -2.84 -6.80 -2.84 -7.31 -9.38 -24.08 -10.80 -27.67 -0.58 -1.46 -1.17 -2.72 -1.28 -2.74 -0.11 -0.05 -2.97 2.72 -6.34 6.12 -3.38 3.40 -6.46 6.37 -6.84 6.57 -0.47 0.25 -1.26 0.38 -2.23 0.41 -1.30 0 -1.62 -0.09 -2.47 -0.68 -0.92 -0.65 -1.26 -1.28 -7.47 -13.77 -3.58 -7.22 -6.59 -13.12 -6.68 -13.12 -0.09 0 -0.52 0.83 -0.94 1.87 -0.43 1.01 -1.66 3.91 -2.74 6.46 -2.52 5.96 -15.03 35.78 -16.42 39.15 -1.49 3.62 -2 4.55 -2.90 5.36 -1.46 1.28 -3.24 1.49 -5.06 0.58z"/>
 </g>
</svg>
